<?xml version="1.0" standalone="no"?>
<!DOCTYPE svg PUBLIC "-//W3C//DTD SVG 20010904//EN"
 "http://www.w3.org/TR/2001/REC-SVG-20010904/DTD/svg10.dtd">
<svg version="1.0" xmlns="http://www.w3.org/2000/svg"
 width="400.000000pt" height="400.000000pt" viewBox="0 0 400.000000 400.000000"
 preserveAspectRatio="xMidYMid meet">

<g transform="translate(0.000000,400.000000) scale(0.100000,-0.100000)"
fill="#000000" stroke="none">
<path d="M2047 3801 c-60 -13 -67 -28 -22 -46 21 -9 48 -14 61 -11 12 3 25 2
29 -3 3 -5 31 -15 63 -21 114 -22 107 -18 87 -40 -17 -19 -17 -20 9 -30 15 -5
44 -10 64 -10 68 -1 316 -75 417 -125 113 -56 262 -161 355 -251 48 -46 153
-124 167 -124 3 0 18 -9 33 -20 26 -19 29 -19 32 -3 2 13 19 3 73 -43 71 -61
137 -125 166 -161 35 -44 112 -223 123 -289 l5 -31 -36 36 c-20 20 -63 70 -95
111 -32 41 -63 81 -69 88 -5 6 -7 12 -4 12 6 0 -37 50 -75 87 -14 14 -38 31
-55 39 -16 7 -27 13 -24 14 3 0 -17 24 -45 53 -28 29 -55 51 -60 48 -4 -2 -2
-8 5 -13 11 -8 11 -9 -1 -5 -8 2 -14 11 -12 21 2 9 -2 16 -8 16 -22 0 -8 -29
28 -56 20 -16 37 -27 37 -24 0 3 20 -16 43 -42 24 -26 47 -46 50 -45 4 1 7 -1
7 -4 0 -4 32 -40 70 -81 84 -87 165 -207 231 -338 46 -92 47 -97 52 -206 8
-197 -26 -419 -93 -599 -32 -85 -129 -279 -180 -360 -92 -144 -268 -326 -412
-425 -95 -66 -107 -71 -93 -35 10 26 9 27 -7 14 -10 -8 -20 -16 -23 -19 -41
-44 -295 -207 -349 -225 -14 -4 -40 -14 -60 -23 -20 -9 -41 -17 -48 -18 -6 -1
-22 -10 -35 -19 -23 -17 -23 -17 15 -12 152 23 -245 -166 -431 -204 -50 -11
-67 -11 -83 -1 -11 7 -24 10 -29 7 -4 -3 -10 -1 -12 4 -4 11 -137 74 -193 91
-46 14 -115 48 -115 56 0 2 9 0 20 -6 11 -6 26 -10 33 -9 6 2 37 -1 67 -5 92
-14 294 -7 278 10 -5 4 -124 20 -218 29 -36 3 -76 8 -90 10 -14 2 -43 7 -65
10 -22 4 -47 9 -55 12 -8 4 -23 5 -34 4 -11 -2 -16 2 -12 8 4 6 2 11 -4 11 -6
0 -48 14 -93 32 -85 33 -188 94 -244 144 -89 81 -96 79 -22 -7 28 -33 48 -59
44 -59 -19 0 -166 76 -241 125 -120 78 -206 149 -291 238 -85 90 -116 147
-154 282 -44 159 -59 205 -90 271 -16 33 -29 66 -29 71 0 6 -14 26 -31 44
l-31 34 6 85 c18 225 83 446 192 648 31 56 39 79 27 72 -48 -30 -143 -218
-192 -377 -18 -57 -36 -103 -40 -103 -21 0 -39 -123 -41 -285 l-2 -80 -15 35
c-32 74 -29 137 17 322 88 361 106 414 167 512 146 232 282 399 412 507 47 39
136 119 196 178 137 132 222 183 415 250 80 27 186 64 235 82 64 22 107 31
148 31 31 -1 57 3 57 9 0 5 -4 9 -9 9 -5 0 -7 10 -3 22 5 21 4 21 -99 15 -57
-4 -131 -12 -164 -19 l-60 -13 40 -6 40 -6 -40 -2 c-115 -4 -304 -65 -415
-133 -141 -88 -198 -141 -423 -396 -187 -211 -313 -368 -358 -447 -68 -117
-135 -320 -197 -590 -8 -38 -9 -35 -17 48 -8 97 6 281 30 397 35 165 2 103
-46 -86 -18 -73 -32 -155 -32 -193 -2 -109 54 -625 69 -640 2 -2 4 16 4 40 1
30 3 39 9 29 12 -21 73 -252 68 -257 -19 -18 -142 274 -160 377 -3 19 -5 17
-6 -10 -3 -85 69 -398 100 -436 6 -8 8 -14 3 -14 -5 0 -4 -4 2 -8 19 -12 97
-133 148 -227 57 -105 167 -275 192 -296 11 -9 9 0 -8 26 -30 48 -74 134 -61
120 30 -33 118 -143 181 -227 40 -53 114 -135 164 -182 81 -77 86 -84 52 -70
-109 45 -279 164 -407 284 -66 62 -159 170 -255 295 -22 29 -22 29 2 -21 50
-102 225 -341 258 -353 25 -8 96 -69 90 -77 -4 -4 -2 -4 5 0 6 3 15 2 18 -4
22 -35 206 -147 388 -236 64 -31 115 -59 112 -62 -14 -15 -240 68 -328 120
-81 48 -32 3 72 -67 103 -68 270 -155 302 -158 10 -1 19 -4 19 -8 0 -3 15 -6
33 -7 18 -1 75 -8 127 -17 52 -8 183 -25 290 -36 283 -30 826 -27 1102 6 53 7
159 49 265 105 86 46 203 119 203 126 0 2 -30 -12 -67 -30 -116 -58 -325 -116
-411 -116 l-47 1 90 33 c120 43 387 157 450 192 71 38 126 74 158 103 15 14
27 21 27 16 0 -4 9 0 20 10 12 11 29 20 38 21 34 5 208 216 273 329 l22 40
-38 -45 c-193 -223 -373 -371 -576 -472 -113 -56 -141 -61 -78 -16 55 39 206
168 237 200 12 14 24 35 27 47 2 11 30 61 61 109 54 81 164 286 164 304 0 5
11 26 25 49 66 103 202 416 251 574 l19 60 7 -50 c10 -80 -20 -317 -53 -423
-6 -18 -9 -36 -6 -38 6 -6 48 118 73 216 29 112 16 592 -21 780 l-13 65 -1
-50 c-2 -72 -17 -46 -40 67 -11 53 -23 108 -27 122 -10 41 12 31 32 -14 10
-22 21 -40 26 -40 11 0 11 -1 -11 66 -56 170 -165 401 -258 541 -67 102 -83
114 -37 29 45 -85 43 -99 -4 -39 -63 78 -161 169 -249 231 -46 31 -151 107
-234 169 -158 116 -231 153 -374 189 -56 14 -65 19 -45 24 21 5 17 8 -31 23
-31 10 -103 27 -160 37 -127 24 -176 37 -185 52 -4 7 -3 8 4 4 7 -4 12 -3 12
2 0 29 -151 58 -223 43z m1238 -761 c10 -11 16 -20 13 -20 -3 0 -13 9 -23 20
-10 11 -16 20 -13 20 3 0 13 -9 23 -20z m551 -906 c7 -49 -14 -158 -57 -298
-32 -103 -49 -129 -24 -36 23 84 45 228 45 295 0 111 21 133 36 39z m-3476
-487 c0 -5 -4 -5 -10 -2 -5 3 -10 14 -10 23 0 15 2 15 10 2 5 -8 10 -19 10
-23z m5 -73 c4 -38 4 -38 -10 -14 -17 29 -21 80 -5 64 6 -6 13 -28 15 -50z
m50 -269 c13 -27 23 -51 21 -53 -5 -5 -43 59 -51 88 -10 35 1 22 30 -35z"/>
<path d="M3187 3099 c7 -7 15 -10 18 -7 3 3 -2 9 -12 12 -14 6 -15 5 -6 -5z"/>
<path d="M590 2635 c-7 -9 -10 -18 -7 -21 3 -3 10 4 17 15 13 25 8 27 -10 6z"/>
<path d="M535 2006 c-24 -13 -35 -28 -29 -37 2 -4 -2 -12 -10 -18 -17 -14 -22
-186 -6 -196 5 -3 10 -17 10 -31 0 -13 5 -24 11 -24 6 0 9 -5 7 -12 -2 -6 4
-20 13 -31 60 -65 74 -77 78 -66 5 15 -38 387 -47 410 -6 14 -11 15 -27 5z"/>
<path d="M3517 1899 c-8 -13 -20 -58 -26 -99 -7 -41 -22 -113 -33 -159 -19
-81 -32 -169 -22 -143 3 6 13 12 22 12 24 0 66 56 95 126 21 49 24 74 23 151
-1 80 -4 95 -22 114 l-22 21 -15 -23z"/>
</g>
</svg>
